HIERARCHY
ROOT Hips
{
 OFFSET 0.000000 0.000000 0.000000
 CHANNELS 6 Xposition Yposition Zposition Yrotation Xrotation Zrotation
 JOINT Chest
 {
  OFFSET 0.000000 9.585900 0.002600
  CHANNELS 3 Yrotation Xrotation Zrotation
  JOINT Chest2
  {
   OFFSET 0.000000 9.601200 -0.005300
   CHANNELS 3 Yrotation Xrotation Zrotation
   JOINT Chest3
   {
    OFFSET 0.000000 9.561800 0.000000
    CHANNELS 3 Yrotation Xrotation Zrotation
    JOINT Chest4
    {
     OFFSET 0.000000 9.552100 0.000000
     CHANNELS 3 Yrotation Xrotation Zrotation
     JOINT Neck
     {
      OFFSET 0.000000 14.453000 0.000000
      CHANNELS 3 Yrotation Xrotation Zrotation
      JOINT Head
      {
       OFFSET 0.000000 8.936500 -0.011300
       CHANNELS 3 Yrotation Xrotation Zrotation
       End Site
       {
        OFFSET 0.000000 17.073600 -0.006000
       }
      }
     }
     JOINT RightCollar
     {
      OFFSET -2.921100 9.558500 0.000000
      CHANNELS 3 Yrotation Xrotation Zrotation
      JOINT RightShoulder
      {
       OFFSET -13.519700 0.000000 0.000000
       CHANNELS 3 Yrotation Xrotation Zrotation
       JOINT RightElbow
       {
        OFFSET 0.000000 -29.696600 0.000000
        CHANNELS 3 Yrotation Xrotation Zrotation
        JOINT RightWrist
        {
         OFFSET 0.000000 -24.004700 0.000000
         CHANNELS 3 Yrotation Xrotation Zrotation
         End Site
         {
          OFFSET 0.000000 -17.728500 0.000000
         }
        }
       }
      }
     }
     JOINT LeftCollar
     {
      OFFSET 2.921100 9.558500 0.000000
      CHANNELS 3 Yrotation Xrotation Zrotation
      JOINT LeftShoulder
      {
       OFFSET 13.519700 0.000000 0.000000
       CHANNELS 3 Yrotation Xrotation Zrotation
       JOINT LeftElbow
       {
        OFFSET 0.000000 -29.696600 0.000000
        CHANNELS 3 Yrotation Xrotation Zrotation
        JOINT LeftWrist
        {
         OFFSET 0.000000 -24.004700 0.000000
         CHANNELS 3 Yrotation Xrotation Zrotation
         End Site
         {
          OFFSET 0.000000 -17.728500 0.000000
         }
        }
       }
      }
     }
    }
   }
  }
 }
 JOINT RightHip
 {
  OFFSET -7.771700 -0.012900 -0.001300
  CHANNELS 3 Yrotation Xrotation Zrotation
  JOINT RightKnee
  {
   OFFSET 0.000000 -40.869800 0.001200
   CHANNELS 3 Yrotation Xrotation Zrotation
   JOINT RightAnkle
   {
    OFFSET 0.000000 -39.717900 0.002100
    CHANNELS 3 Yrotation Xrotation Zrotation
    JOINT RightToe
    {
     OFFSET 0.000000 -4.965400 11.033500
     CHANNELS 3 Yrotation Xrotation Zrotation
     End Site
     {
      OFFSET 0.000000 -1.423100 5.872300
     }
    }
   }
  }
 }
 JOINT LeftHip
 {
  OFFSET 7.771700 -0.012900 -0.001300
  CHANNELS 3 Yrotation Xrotation Zrotation
  JOINT LeftKnee
  {
   OFFSET 0.000000 -40.869800 0.001200
   CHANNELS 3 Yrotation Xrotation Zrotation
   JOINT LeftAnkle
   {
    OFFSET 0.000000 -39.717900 0.002100
    CHANNELS 3 Yrotation Xrotation Zrotation
    JOINT LeftToe
    {
     OFFSET 0.000000 -4.965400 11.033500
     CHANNELS 3 Yrotation Xrotation Zrotation
     End Site
     {
      OFFSET 0.000000 -1.423100 5.872300
     }
    }
   }
  }
 }
}
MOTION
Frames: 15
Frame Time: 0.008333
0.000000 85.388000 0.000000 0.000000 -5.767877 0.000000 0.000000 11.653817 0.000000 0.000000 -5.885947 0.000000 0.000000 -0.000000 0.000000 0.000000 -0.000000 0.000000 0.000000 12.528835 0.000000 0.000000 0.711642 0.000000 0.000000 -0.000000 0.000000 0.000000 0.000000 -90.000000 0.000000 -2.309062 0.000000 0.000000 2.309062 0.000000 0.000000 -0.000000 0.000000 0.000000 -0.000000 90.000000 0.000000 -2.309062 0.000000 0.000000 2.309062 0.000000 0.000000 8.520406 0.000000 0.000000 1.905762 0.000000 -0.000000 -4.658285 0.000000 0.000000 -0.000000 0.000000 0.000000 8.520406 0.000000 0.000000 1.905762 0.000000 -0.000000 -4.658285 0.000000 0.000000 -0.000000 0.000000
-27.651515 62.148215 12.147451 179.716680 -52.008034 -2.985427 5.852160 26.232697 -1.992092 0.981095 4.428899 -0.413046 1.471033 7.013099 -0.641770 4.489961 21.338556 -1.373694 -3.691467 22.528507 5.799448 -8.178391 6.549066 11.459652 7.964638 4.631860 4.954822 -21.643556 -49.160956 -10.845021 -176.762499 -46.191488 179.530994 10.130454 -6.520442 -39.116830 -9.691775 1.754595 1.933256 -16.621387 -14.543626 18.551167 -61.104947 -63.421405 39.809661 -9.972272 3.962174 -3.821608 1.815527 -14.468221 -5.739700 -2.629327 61.572295 -6.693463 1.203211 -9.308874 11.611239 0.232078 -1.386325 -0.080941 -4.889570 -12.289096 1.803947 25.344772 76.808792 26.165217 0.822583 -11.784423 -3.169373 0.318536 0.692571 0.110501
-27.650669 62.147148 12.154814 179.690882 -52.031481 -3.003687 5.795800 26.223989 -2.015951 0.971996 4.428532 -0.414874 1.478686 7.018400 -0.637639 4.452940 21.342474 -1.385965 -3.583316 22.516517 5.778413 -7.946241 6.484652 11.404373 7.963933 4.705336 4.926753 -21.731860 -49.156477 -11.033924 -177.114829 -46.103492 179.675845 10.175212 -6.556979 -38.938776 -9.622993 1.772045 1.899622 -16.594902 -14.486072 18.566206 -61.077266 -63.521993 39.834226 -10.042667 3.980674 -3.846567 1.830538 -14.442331 -5.697401 -2.622401 61.500625 -6.693062 1.251909 -8.992171 11.672364 0.227052 -1.430021 -0.094390 -4.892892 -12.264421 1.834212 25.388525 76.804776 26.204429 0.833032 -11.786145 -3.164277 0.289215 0.695984 0.102902
-27.650263 62.145410 12.163777 179.652391 -52.055767 -3.016720 5.766761 26.224525 -2.014865 0.944603 4.425025 -0.420905 1.486893 7.024173 -0.635118 4.414952 21.348687 -1.395119 -3.444815 22.446972 5.769378 -7.733559 6.423927 11.318346 7.972369 4.775344 4.905063 -21.812301 -49.138217 -11.238333 -177.341020 -46.036360 179.796353 10.241257 -6.595684 -38.740468 -9.627924 1.792903 1.863537 -16.509604 -14.440155 18.580700 -61.073061 -63.597364 39.882288 -10.099989 4.001728 -3.866260 1.852967 -14.414218 -5.650223 -2.618934 61.418451 -6.693880 1.301576 -8.641895 11.730039 0.222406 -1.482924 -0.103818 -4.880983 -12.239643 1.872244 25.366768 76.809983 26.185853 0.846900 -11.791074 -3.165486 0.283129 0.700294 0.103716
-27.650525 62.144219 12.173230 179.622437 -52.087083 -3.039390 5.753464 26.238456 -1.996071 0.919966 4.424535 -0.422269 1.519603 7.029221 -0.633790 4.335546 21.355749 -1.395989 -3.316132 22.392161 5.738535 -7.499377 6.303522 11.233730 7.987862 4.847485 4.888781 -21.886107 -49.109218 -11.453692 -177.447978 -45.988466 179.887844 10.331613 -6.632632 -38.522247 -9.628173 1.800173 1.828216 -16.447327 -14.396891 18.591109 -61.075562 -63.649610 39.943020 -10.129022 4.024052 -3.867438 1.890072 -14.366305 -5.604994 -2.636911 61.316139 -6.695863 1.350593 -8.276932 11.792815 0.213333 -1.525502 -0.115613 -4.875832 -12.207723 1.907286 25.370372 76.812957 26.196987 0.859842 -11.796582 -3.171353 0.268871 0.703270 0.108858
-27.648604 62.144693 12.182438 179.568037 -52.130821 -3.062097 5.804112 26.270166 -1.930493 0.860068 4.419771 -0.425401 1.485913 7.032693 -0.634723 4.322607 21.366106 -1.398154 -3.185736 22.323601 5.701206 -7.261649 6.157073 11.137690 8.008135 4.919705 4.877557 -21.938234 -49.058945 -11.688262 -177.460119 -45.957053 179.952084 10.435478 -6.664657 -38.281871 -9.583540 1.794748 1.784902 -16.450622 -14.353413 18.606809 -61.072102 -63.677181 40.010096 -10.139677 4.037249 -3.872217 1.920970 -14.312108 -5.536412 -2.630742 61.212070 -6.686343 1.397281 -7.878176 11.858630 0.205613 -1.580065 -0.132047 -4.862934 -12.159625 1.962636 25.368790 76.813460 26.200473 0.874940 -11.794475 -3.168425 0.263563 0.700269 0.098760
-27.652316 62.141173 12.195164 179.531305 -52.141182 -3.070725 5.709784 26.254657 -1.954961 0.905126 4.430826 -0.419741 1.453206 7.036611 -0.632324 4.308646 21.377017 -1.398881 -3.053363 22.243514 5.657753 -7.019654 5.988862 11.030747 8.034641 4.984195 4.870981 -21.951297 -48.973118 -11.950237 -177.415955 -45.942408 -179.997593 10.545665 -6.690408 -38.017093 -9.499009 1.776972 1.727322 -16.487847 -14.317523 18.624073 -61.085916 -63.677381 40.066307 -10.159359 4.046479 -3.880353 1.936646 -14.301146 -5.501283 -2.613059 61.121146 -6.677064 1.441722 -7.474161 11.936198 0.205783 -1.626599 -0.151204 -4.857963 -12.149575 1.988680 25.359588 76.809042 26.196276 0.884109 -11.797290 -3.172266 0.259498 0.709821 0.098504
-27.655169 62.139924 12.207015 179.503356 -52.160670 -3.096016 5.652208 26.256981 -1.943918 0.916649 4.436073 -0.416484 1.485793 7.040013 -0.637350 4.237775 21.387803 -1.377274 -2.920530 22.152772 5.609224 -6.776177 5.800643 10.915062 8.064850 5.042908 4.866471 -21.920462 -48.849477 -12.236346 -177.347371 -45.943919 -179.946092 10.657713 -6.710154 -37.728332 -9.470163 1.762166 1.674567 -16.432283 -14.317797 18.614259 -61.221899 -63.602201 40.152822 -10.170622 4.064653 -3.888292 1.946473 -14.278202 -5.460494 -2.621189 61.027959 -6.686048 1.504797 -7.084299 12.019573 0.198779 -1.649439 -0.172745 -4.855492 -12.129041 2.022591 25.340080 76.808663 26.186138 0.903232 -11.800596 -3.180163 0.249992 0.717312 0.099539
-27.654602 62.141774 12.217459 179.491814 -52.192193 -3.158086 5.618727 26.272884 -1.889627 0.947928 4.440746 -0.419774 1.480264 7.042537 -0.636875 4.222619 21.392248 -1.371245 -2.818273 22.059143 5.602028 -6.535675 5.594526 10.794713 8.051769 5.103937 4.905399 -21.855080 -48.691975 -12.533434 -177.268270 -45.955845 -179.886922 10.766606 -6.720689 -37.417088 -9.484539 1.746598 1.665928 -16.529292 -14.259491 18.639658 -61.085272 -63.593423 40.171268 -10.202436 4.085407 -3.911438 1.939710 -14.245659 -5.396963 -2.661051 60.940048 -6.722284 1.595194 -6.727828 12.109866 0.169972 -1.637598 -0.199773 -4.864720 -12.092417 2.079805 25.365215 76.802926 26.216456 0.941288 -11.774852 -3.167603 0.215102 0.696391 0.075733
-27.657081 62.148990 12.224001 179.478160 -52.254303 -3.201927 5.584932 26.320047 -1.843572 0.921973 4.443167 -0.414235 1.424922 7.048776 -0.620740 4.222675 21.403678 -1.372973 -2.674586 21.943229 5.526199 -6.300421 5.367538 10.670815 8.101112 5.170060 4.883580 -21.765148 -48.504040 -12.830242 -177.183996 -45.976853 -179.820056 10.874417 -6.721168 -37.091823 -9.427887 1.718412 1.600011 -16.596630 -14.238852 18.650673 -60.963042 -63.575885 40.155255 -10.235183 4.108623 -3.938464 1.938503 -14.185923 -5.351012 -2.671864 60.882396 -6.728675 1.639457 -6.399642 12.178392 0.165127 -1.613354 -0.206238 -4.872206 -12.024695 2.117108 25.390657 76.799203 26.250389 0.952489 -11.761463 -3.180584 0.215069 0.682459 0.078665
-27.664679 62.153833 12.231970 179.490997 -52.290040 -3.236149 5.521082 26.345358 -1.826830 0.897674 4.445094 -0.406603 1.412541 7.054965 -0.613818 4.185692 21.416570 -1.355594 -2.537925 21.813689 5.445271 -6.073854 5.114295 10.541135 8.148003 5.238022 4.860327 -21.653191 -48.287585 -13.124856 -177.090039 -46.009862 -179.752370 10.984073 -6.714410 -36.768193 -9.369877 1.683427 1.535201 -16.646357 -14.231562 18.650799 -60.888205 -63.531243 40.135229 -10.204529 4.108897 -3.926083 1.926967 -14.146269 -5.343135 -2.675833 60.829726 -6.727553 1.670781 -6.153360 12.225307 0.153450 -1.530370 -0.192916 -4.897714 -11.986250 2.117397 25.465990 76.790795 26.330140 0.957001 -11.762877 -3.186604 0.210977 0.683956 0.074080
-27.668995 62.155793 12.241858 179.438815 -52.299930 -3.236687 5.539469 26.345497 -1.784624 0.864383 4.446462 -0.389215 1.403424 7.059851 -0.606641 4.159293 21.426697 -1.336274 -2.423261 21.673037 5.381617 -5.862256 4.835645 10.404735 8.167762 5.308002 4.857760 -21.516439 -48.045107 -13.419743 -176.975462 -46.057179 -179.695323 11.098210 -6.706304 -36.457655 -9.334717 1.650750 1.531914 -16.690286 -14.242346 18.604821 -60.826571 -63.427038 40.086711 -10.170636 4.093192 -3.906161 1.942313 -14.128039 -5.310004 -2.899096 60.745328 -6.929663 1.811443 -5.980170 12.254747 0.117400 -1.398346 -0.167085 -4.881166 -11.973205 2.144307 25.490562 76.783603 26.363560 0.969389 -11.756663 -3.197888 0.202122 0.680366 0.076132
-27.678226 62.160865 12.247867 179.396943 -52.332580 -3.211656 5.496390 26.369939 -1.772003 0.873983 4.450622 -0.389918 1.395380 7.063661 -0.598132 4.137037 21.435225 -1.312611 -2.319165 21.521345 5.313653 -5.669057 4.537545 10.263660 8.178069 5.383876 4.859598 -21.359898 -47.782342 -13.708487 -176.833807 -46.117969 -179.651287 11.218195 -6.702639 -36.167270 -9.298019 1.623852 1.486025 -16.754406 -14.251956 18.597625 -60.695917 -63.406970 40.013380 -10.210670 4.105869 -3.929079 1.939393 -14.083008 -5.331439 -2.966947 60.692534 -6.982924 1.909626 -5.906720 12.252757 0.065211 -1.236721 -0.138299 -4.863456 -11.938460 2.133154 25.526570 76.774381 26.405652 0.972948 -11.739626 -3.208607 0.220816 0.665142 0.082338
-27.681630 62.164007 12.254401 179.355750 -52.350864 -3.216021 5.473981 26.380254 -1.720276 0.882126 4.452869 -0.390643 1.388299 7.066792 -0.588909 4.118303 21.442536 -1.286306 -2.224343 21.362269 5.242861 -5.492051 4.226755 10.120064 8.183837 5.466995 4.868442 -21.192222 -47.504719 -13.981962 -176.665288 -46.186419 -179.616528 11.338860 -6.705352 -35.904650 -9.261582 1.598517 1.396938 -16.833806 -14.252001 18.632987 -60.581200 -63.346106 39.912517 -10.192926 4.077961 -3.894426 1.950882 -14.065079 -5.301147 -3.012405 60.658697 -7.013822 1.910153 -5.804511 12.242424 0.080085 -1.130587 -0.101652 -4.852398 -11.917807 2.153944 25.540485 76.778120 26.435924 0.981153 -11.737977 -3.230978 0.229566 0.658173 0.088269
-27.685541 62.165170 12.260883 179.317635 -52.357640 -3.212006 5.462603 26.382477 -1.676376 0.878160 4.454613 -0.384299 1.402747 7.067239 -0.607810 4.095167 21.449140 -1.223482 -2.136994 21.198728 5.170418 -5.327998 3.908582 9.975375 8.185122 5.556102 4.882660 -21.012080 -47.215877 -14.238990 -176.470930 -46.258865 -179.596167 11.458413 -6.711300 -35.669181 -9.240139 1.579179 1.350740 -16.888305 -14.269831 18.627862 -60.460587 -63.296142 39.801394 -10.176787 4.041136 -3.853262 1.938403 -14.059864 -5.292829 -2.964625 60.626015 -6.959961 1.898735 -5.719094 12.213675 0.101955 -1.038931 -0.069173 -4.842811 -11.910639 2.167854 25.577311 76.778511 26.477116 0.988373 -11.736416 -3.234470 0.223649 0.653660 0.085608
